PathFileType	4	(X/Y/Z)	..\data\SUBJ01\dynamic\walk.trc
DataRate	CameraRate	NumFrames	NumMarkers	Units	OrigDataRate	OrigDataStartFrame	OrigNumFrames
100.000000	100.000000	4	21	mm	100.000000	39	337
Frame#	Time	C7			T10			CLAV			STRN			LSHO			RSHO			LASI			RASI			SACR			LTHI			LKNE			LTIB			LANK			LHEE			LTOE			RTHI			RKNE			RTIB			RANK			RHEE			RTOE			
		X1	Y1	Z1	X2	Y2	Z2	X3	Y3	Z3	X4	Y4	Z4	X5	Y5	Z5	X6	Y6	Z6	X7	Y7	Z7	X8	Y8	Z8	X9	Y9	Z9	X10	Y10	Z10	X11	Y11	Z11	X12	Y12	Z12	X13	Y13	Z13	X14	Y14	Z14	X15	Y15	Z15	X16	Y16	Z16	X17	Y17	Z17	X18	Y18	Z18	X19	Y19	Z19	X20	Y20	Z20	X21	Y21	Z21	

40	1.34	291.6586303710938	1358.351196289063	22.04595035062721	222.8338775634766	1138.6767578125	22.04595035062721	437.3993530273439	1256.481323242188	21.95847742216747	492.4616699218751	1098.366821289063	22.04595035062721	354.0010375976563	1321.025268554688	-152.0801736032232	355.5939331054688	1286.876831054688	192.0803046712631	403.6026000976564	870.2894287109377	-120.859251464656	414.226531982422	857.528991699219	160.859251464656	231.9717407226563	878.1649169921877	20	299.7299499511719	602.8709716796876	-196.594804781495	280.5129089355469	426.9000854492189	-109.6938565403288	218.3931579589844	190.6658325195313	-159.4973066312762	208.7079315185547	64.0944061279297	-111.7562165806763	147.2283172607422	56.81271743774415	-65.58032746445977	312.9677734375001	45.68999481201173	-74.43897087404167	454.7720642089845	592.8507080078126	213.5914694104505	539.9192504882814	442.8850402832032	149.1302321308147	533.0700683593751	210.3829193115235	196.2680469139518	519.8894653320314	85.49533843994142	152.8880051473318	466.7987670898439	76.61560821533205	105.7255595369172	630.8326416015626	64.75403594970705	114.6938823150058	
41	1.35	302.1159057617188	1356.778564453125	22.04595035062721	233.3487091064454	1137.073364257813	22.04595035062721	447.863006591797	1254.908569335938	21.95847742216747	502.9000244140626	1096.80615234375	22.04595035062721	364.4700622558594	1319.500122070313	-152.0801736032232	365.8410644531251	1285.518432617188	192.0803046712631	413.6488342285157	868.608337402344	-120.859251464656	425.2855834960939	855.6693115234377	160.859251464656	242.7340850830079	876.5939941406252	20	306.6044006347657	602.5513916015626	-196.594804781495	285.5082092285157	426.4629211425782	-109.6938565403288	220.0746307373047	191.0722045898438	-159.4973066312762	209.0546417236329	64.62200927734376	-111.7562165806763	147.5177917480469	57.82036209106447	-65.58032746445977	313.0370483398438	45.59920501708985	-74.43897087404167	463.3715209960939	589.9801635742189	213.5914694104505	548.0236816406251	439.9320068359376	149.1302321308147	556.7133789062501	208.3193664550782	196.2680469139518	553.3145751953126	82.58737945556642	152.8880051473318	500.8951721191407	70.4123001098633	105.7255595369172	665.5747680664064	68.41236877441408	114.6938823150058	
42	1.36	312.6411132812501	1355.100219726563	22.04595035062721	243.9434051513672	1135.3564453125	22.04595035062721	458.407928466797	1253.235717773438	21.95847742216747	513.4273681640626	1095.150634765625	22.04595035062721	374.9567260742188	1317.892211914063	-152.0801736032232	376.2598876953126	1284.026733398438	192.0803046712631	423.8188781738282	866.8377685546877	-120.859251464656	436.4305114746095	853.7059326171877	160.859251464656	253.5960540771485	874.9170532226565	20	313.8348083496094	602.1271972656251	-196.594804781495	290.8795776367188	425.9711303710939	-109.6938565403288	221.9856262207032	191.5322723388672	-159.4973066312762	209.4821319580079	65.2463836669922	-111.7562165806763	147.8500061035157	58.96875381469728	-65.58032746445977	313.1227416992188	45.51940917968751	-74.43897087404167	471.416717529297	586.6510009765626	213.5914694104505	555.5505981445314	436.7211914062501	149.1302321308147	579.4875488281251	206.8101501464844	196.2680469139518	585.6682128906251	80.77795410156251	152.8880051473318	534.0873413085939	65.4287567138672	105.7255595369172	698.9436035156251	73.04721069335939	114.6938823150058	
43	1.37	323.2353515625001	1353.325805664063	22.04595035062721	254.6255950927735	1133.535034179688	22.04595035062721	469.0366210937501	1251.477783203125	21.95847742216747	524.0518798828126	1093.414794921875	22.04595035062721	385.4612426757814	1316.217163085938	-152.0801736032232	386.849334716797	1282.406860351563	192.0803046712631	434.1327209472657	864.9874267578127	-120.859251464656	447.6601867675782	851.6621704101565	160.859251464656	264.5617675781251	873.1478271484377	20	321.4574584960938	601.6007690429689	-196.594804781495	296.6329650878907	425.4269104003907	-109.6938565403288	224.1406555175782	192.0513153076172	-159.4973066312762	209.9911499023438	65.97337341308595	-111.7562165806763	148.2245025634766	60.26996994018556	-65.58032746445977	313.2311096191407	45.4515724182129	-74.43897087404167	479.0199279785157	582.9263305664064	213.5914694104505	562.7188720703126	433.4602050781251	149.1302321308147	601.2333984375001	205.8070678710938	196.2680469139518	616.5161743164064	79.94073486328126	152.8880051473318	565.9149169921876	61.60460662841798	105.7255595369172	730.5403442382814	78.39148712158205	114.6938823150058	
